<svg width="600" height="600" version="1.1" viewBox="0 0 158.75 158.75" xmlns="http://www.w3.org/2000/svg">
 <g transform="translate(0 -138.25)">
  <path transform="matrix(.26458 0 0 .26458 0 138.25)" d="m126.56 139.21c-6.6996 0-13.079 1.1164-19.141 3.3496-10.847 3.8283-19.78 10.688-26.799 20.578-6.6996 9.5709-10.049 20.258-10.049 32.062v209.6c0 15.313 5.4225 28.553 16.27 39.719 11.166 10.847 24.405 16.271 39.719 16.271 15.632 0 28.874-5.4245 39.721-16.271 11.166-11.166 16.748-24.405 16.748-39.719v-38.115c0.12045-8.2551 8.6222-6.089 12.92 0 8.0489 13.94 25.116 25.911 44.984 25.842 19.868-0.06848 36.369-9.8903 44.982-25.842 3.262-3.8471 12.457-10.402 13.4 0v38.115c0 15.313 5.4225 28.553 16.27 39.719 11.166 10.847 24.405 16.271 39.719 16.271 7.9834 0 15.339-1.4249 22.074-4.2539v74.092h18.852c0.42353 26.134 1.1731 45.126 2.25 45.748 3.5444 2.0462 177.21-98.232 177.21-102.32-5e-5 -1.5251-24.12-16.406-54.562-34.369 5.5256-7.9709 8.2949-17.045 8.2949-27.227v-118.2c0-13.399-4.7846-24.884-14.355-34.455-9.2519-9.5709-20.577-14.357-33.977-14.357-13.399 0-24.884 4.7865-34.455 14.357-9.5709 9.5709-14.357 21.056-14.357 34.455v94.582c-7.9233-4.3643-15.006-8.2-20.51-11.064v-182.58c0-11.804-3.5087-22.492-10.527-32.062-6.6996-9.89-15.473-16.75-26.32-20.578-6.3806-2.2332-12.762-3.3496-19.143-3.3496-17.228 0-31.743 6.7004-43.547 20.1-6.3806 7.3377-9.7298 10.846-10.049 10.527 0 0-45.495 55.014-46.771 55.971-1.2761 0.95705-5.5032 8.2734-14.482 8.2734s-12.728-7.3164-14.004-8.2734c-1.2761-0.95709-46.771-55.971-46.771-55.971-0.95709-0.31907-4.4658-3.8277-10.527-10.527-11.485-13.399-25.843-20.1-43.07-20.1zm354.06 0c-13.399 0-24.884 4.7846-34.455 14.355-9.2519 9.2519-13.879 20.577-13.879 33.977 0 13.399 4.627 24.886 13.879 34.457 9.5709 9.2519 21.056 13.877 34.455 13.877 13.399 0 24.884-4.6251 34.455-13.877 9.5709-9.5709 14.355-21.058 14.355-34.457 0-13.399-4.7846-24.725-14.355-33.977-9.5709-9.5709-21.056-14.355-34.455-14.355z"/>
 </g>
</svg>
